<svg style="border-radius: 100px;" xmlns="http://www.w3.org/2000/svg" version="1.1" xmlns:xlink="http://www.w3.org/1999/xlink" xmlns:svgjs="http://svgjs.dev/svgjs" width="1500" height="1500" viewBox="0 0 1500 1500"><rect width="1500" height="1500" fill="#233565"></rect><g transform="matrix(0.6666666666666666,0,0,0.6666666666666666,248.44236760124625,189.33333333333348)"><svg viewBox="0 0 321 360" data-background-color="#233565" preserveAspectRatio="xMidYMid meet" height="1682" width="1500" xmlns="http://www.w3.org/2000/svg" xmlns:xlink="http://www.w3.org/1999/xlink"><g id="tight-bounds" transform="matrix(1,0,0,1,0.5,0)"><svg viewBox="0 0 320 360" height="360" width="320"><g><svg></svg></g><g><svg viewBox="0 0 320 360" height="360" width="320"><g><path d="M20.961 227.22l3.726 4.658-1.863-6.056c-0.466-2.795-3.726 0.466-1.863 1.398M25.153 224.425c1.397 2.329 2.795 4.658 2.795 6.987 0 3.261 2.795 4.658 5.123 5.589-3.261-3.726-5.124-13.974-7.918-12.576M204.017 26.929c7.918 0 15.371-0.932 23.756 0.931 20.495 5.124 37.729 15.371 49.374 29.811l32.606 52.169c1.397 13.042 4.192 27.482 3.726 43.319 3.261 0 2.795-4.658 6.521-5.59-3.726 9.316-5.59 20.961-6.521 34.469-2.329-7.453 0-18.632 0.466-24.687-3.261 5.124-5.124 1.397-5.124-0.932 0.466-3.726-1.397-3.261-2.795-4.658-5.124-4.658-8.384-9.782-12.11-17.7 2.329-6.055 2.795-14.905-4.658-19.563-2.329-1.397-5.124-3.726-6.521-7.453-1.863-5.124-5.124-11.179-4.193-19.097 0.466-2.329-6.987 5.124-11.179 1.863-18.166-12.576-36.332-27.016-58.224-39.127-11.645 0-20.029-4.192-24.221-9.316-3.726-4.658-0.932-10.713 4.658-11.179 3.261 0 6.987-0.932 9.782 0.932 0.466-1.863 2.329-4.192 4.657-4.192M157.904 16.215l0.932 0.466c4.658 0.932 6.987 7.453 12.11 5.124 0 3.261 0.466 6.521-0.466 8.85-1.397 3.726-5.59 3.726-8.85 3.726-31.208-1.863-49.374 11.179-68.471 22.358-5.124 3.261-10.713 5.59-14.906 9.782-20.029 18.632-41.921 35.866-47.045 70.335l-4.192 38.195c-0.466 4.192-5.124 8.384-4.192 13.508l3.26 22.824c-3.261-3.261-5.124 0.932-4.192 2.795 0.466 1.397 2.329 6.055 5.124 1.863 3.726 6.987 7.453 20.495 12.576 26.55 15.837 18.632 36.332 35.4 53.101 52.169 4.192-0.932 7.453-0.932 8.384-3.727 1.397 2.795-1.397 5.59-3.726 6.056 7.453 4.658 15.837 8.85 27.016 9.781 14.44 0.932 27.948 3.261 40.524 6.522 6.521-1.863 13.042-2.795 20.029-3.261 2.329 0 3.726-3.726 6.521-4.658l0.466-4.658c2.795 4.192 2.329-1.397 0.466-4.192 3.261 2.795 4.192 5.124 5.589 6.987 0-1.397 3.726-6.521 3.727-0.466l0.931-6.055c1.397-0.932 1.863 5.124 3.261 0.931 1.397-4.192 4.192-0.932 6.987-2.329-0.932 1.863-0.466 5.59 2.794 3.261l3.727-3.261c2.329 5.59 6.055 3.261 7.918 2.329 20.495-13.042 40.99-28.413 60.553-43.784l-0.466 6.055 2.329-7.453c2.329 2.329 4.192 0.466 5.124-0.931 2.795-4.658 6.521-9.316 12.577-13.508-7.453 20.029-16.303 35.866-27.482 48.908l-4.658 5.59c0 3.261-0.932 7.453-4.658 7.918-1.863 0.466-5.59-0.932-8.384 1.863-1.397 1.863 3.261 5.59-0.466 2.795-3.261-2.329-6.521 0-10.248 0.932-2.795 0.932 1.863 3.726 2.795 5.589 0.932 1.863 1.863 3.726 1.398 6.056l-5.124-5.59c-6.055 3.261-9.782 9.316-14.906 13.974-2.329 1.863-1.397 5.124-1.397 7.918-3.261 0-6.987-0.932-8.85 0.932-1.397 1.863-0.932 4.658-0.932 7.453-4.658-0.466-5.124-7.453-9.315-6.056-4.192 0.932-8.85 1.397-12.577 3.727 2.795 5.59-4.658 2.329-3.726 3.26-6.987-4.192-13.042-7.453-20.495-4.658-15.837-5.124-35.4-2.795-49.84-0.931 0-2.329 0.466-4.658-0.466-5.124-0.932 2.329-3.726 1.397-3.26 1.397-8.85-6.055-17.7-9.782-27.016-14.905-8.384 0.932-16.303-3.261-18.632-5.59-6.521-6.055-13.974-2.795-20.029-4.192-13.042-3.261-17.7-16.769-19.098-26.084-0.932-4.658-4.658-6.521-6.055-6.056-6.055-19.563-15.371-37.263-22.824-55.429-1.863-4.658-1.397-9.316-1.397-14.44 2.329 0.932 4.658 0.466 4.192-2.794-2.329-15.371-7.918-27.016-13.974-38.195 3.261-15.837 3.726-34.469 11.179-48.443 6.521-12.576 18.632-19.098 27.016-29.811 2.795-3.726 2.795-8.85 5.59-12.11 9.316-9.316 18.632-19.098 28.879-27.482 4.658-3.726 10.247 0 17.234-1.397 2.329-8.384 11.645-15.837 20.495-13.508 3.726 0.932 11.179-8.85 13.508-9.782 3.726-1.397 1.863 3.726 1.863 6.987 8.85-6.987 20.961-10.713 32.14-14.906" fill="#ffffff" fill-rule="nonzero" stroke="none" stroke-width="1" stroke-linecap="butt" stroke-linejoin="miter" stroke-miterlimit="10" stroke-dasharray="" stroke-dashoffset="0" font-family="none" font-weight="none" font-size="none" text-anchor="none" style="mix-blend-mode: normal" data-fill-palette-color="tertiary"></path></g><g transform="matrix(1,0,0,1,64,100.46153846153847)"><svg viewBox="0 0 192 159.07692307692307" height="159.07692307692307" width="192"><g><svg viewBox="0 0 192 159.07692307692307" height="159.07692307692307" width="192"><g><svg viewBox="0 0 192 159.07692307692307" height="159.07692307692307" width="192"><g><svg viewBox="0 0 192 159.07692307692307" height="159.07692307692307" width="192"><g id="textblocktransform"><svg viewBox="0 0 192 159.07692307692307" height="159.07692307692307" width="192" id="textblock"><g><svg viewBox="0 0 192 159.07692307692307" height="159.07692307692307" width="192"><g transform="matrix(1,0,0,1,0,0)"><svg width="192" viewBox="2.25 -25.15 31.200000000000003 25.849999999999998" height="159.07692307692307" data-palette-color="#ffffff"><g class="wordmark-text-0" data-fill-palette-color="primary" id="text-0"><path d="M16.55 0.7Q11.5-13 9-19.35L9-19.35 8.75-19.35Q8.55-16.95 8.03-10.4 7.5-3.85 7.5-3.2L7.5-3.2Q7.5-2.55 7.8-2.27 8.1-2 8.8-2L8.8-2 10.4-2 10.5-1.85 10.15 0.15Q9.7 0.15 8.43 0.08 7.15 0 5.9 0L5.9 0Q4.9 0 3.75 0.13 2.6 0.25 2.25 0.3L2.25 0.3 2.45-1.75Q3.75-1.9 4.3-2.53 4.85-3.15 5.05-4.7L5.05-4.7Q5.45-8.1 6.13-14.25 6.8-20.4 6.8-21.15L6.8-21.15Q6.8-22.15 6.03-22.63 5.25-23.1 3.35-23.2L3.35-23.2 3.2-23.45 3.55-25.1Q4.1-25.05 5.5-24.98 6.9-24.9 8.2-24.9L8.2-24.9Q9.3-24.9 10.23-24.95 11.15-25 11.45-25.05L11.45-25.05Q12.95-20.4 14.38-16.32 15.8-12.25 16.73-9.83 17.65-7.4 17.9-6.8L17.9-6.8 18.15-6.8Q18.7-8.2 20.63-13.35 22.55-18.5 24.8-24.95L24.8-24.95Q25.1-25 25.58-24.98 26.05-24.95 26.5-24.95L26.5-24.95Q27.05-24.9 28.1-24.9L28.1-24.9Q28.9-24.9 30.43-25 31.95-25.1 32.45-25.15L32.45-25.15 32.55-25 32.3-23.25Q30.55-23.05 29.85-22.58 29.15-22.1 29.15-21.1L29.15-21.1Q29.15-20.1 29.5-14.75 29.85-9.4 30.2-5.65L30.2-5.65Q30.45-3.4 30.85-2.7 31.25-2 32.2-2L32.2-2 33.35-2.05 33.45-1.9 33.1 0.1Q32.7 0.1 31.55 0.05 30.4 0 29.1 0L29.1 0Q27.8 0 26.15 0.15 24.5 0.3 24.4 0.3L24.4 0.3 24.6-1.75Q25.9-1.9 26.45-2.35 27-2.8 27-3.7L27-3.7Q27-4.6 26.48-10.85 25.95-17.1 25.75-19.35L25.75-19.35 25.5-19.35Q22.55-11.8 18 0.4L18 0.4 16.55 0.7Z" fill="#ffffff" data-fill-palette-color="primary"></path></g></svg></g></svg></g></svg></g></svg></g><g></g></svg></g></svg></g></svg></g></svg></g><defs></defs></svg><rect width="320" height="360" fill="none" stroke="none" visibility="hidden"></rect></g></svg></g></svg>