<?xml version="1.0" standalone="no"?>
<!DOCTYPE svg PUBLIC "-//W3C//DTD SVG 20010904//EN"
 "http://www.w3.org/TR/2001/REC-SVG-20010904/DTD/svg10.dtd">
<svg version="1.0" xmlns="http://www.w3.org/2000/svg"
 width="596.000000pt" height="655.000000pt" viewBox="0 0 596.000000 655.000000"
 preserveAspectRatio="xMidYMid meet">

<g transform="translate(0.000000,655.000000) scale(0.100000,-0.100000)"
fill="#000000" stroke="none">
<path d="M2950 6381 c-25 -15 -200 -118 -390 -227 -491 -282 -652 -375 -1508
-869 l-762 -440 0 -1560 0 -1560 397 -230 c219 -126 497 -286 618 -356 121
-69 552 -318 958 -553 l738 -426 382 221 c210 122 400 232 422 244 22 13 182
105 355 205 173 101 340 197 371 214 30 17 308 177 617 356 l562 325 0 1560 0
1560 -562 325 c-309 179 -641 370 -738 426 -259 149 -526 303 -992 573 -230
132 -419 241 -420 241 -2 0 -23 -13 -48 -29z m1080 -3096 l0 -1045 -1030 0
-1030 0 0 1045 0 1045 1030 0 1030 0 0 -1045z"/>
<path d="M2070 3285 l0 -945 930 0 930 0 0 945 0 945 -930 0 -930 0 0 -945z
m552 528 c220 -452 304 -634 339 -730 19 -51 36 -93 39 -93 3 0 20 42 39 93
18 52 131 296 250 543 l216 449 135 0 135 0 0 -790 0 -790 -85 0 -85 0 0 717
c0 394 -3 714 -6 710 -4 -4 -16 -32 -27 -62 -38 -105 -130 -307 -317 -702
l-188 -398 -67 0 -67 0 -55 118 c-282 597 -391 833 -428 927 -24 61 -46 113
-49 117 -3 4 -6 -316 -6 -710 l0 -717 -85 0 -85 0 -3 780 c-1 429 0 786 3 793
3 9 40 12 135 12 l131 0 131 -267z"/>
</g>
</svg>
